<svg width="34" height="27" viewBox="0 0 34 27" fill="none" xmlns="http://www.w3.org/2000/svg">
<path d="M6.368 2.14401C7.2 1.05602 8.064 0.448018 8.96 0.320015C9.92 0.192017 10.72 0.384017 11.36 0.896014C12.064 1.34402 12.448 2.04802 12.512 3.00802C12.64 3.90402 12.256 4.89602 11.36 5.98402C10.08 7.58402 9.184 9.18402 8.672 10.784C8.224 12.384 8 13.824 8 15.104L7.616 11.936C9.856 11.936 11.648 12.576 12.992 13.856C14.4 15.136 15.104 16.864 15.104 19.04C15.104 21.088 14.464 22.784 13.184 24.128C11.904 25.408 10.176 26.048 8 26.048C5.76 26.048 4 25.28 2.72 23.744C1.44 22.208 0.800003 20.064 0.800003 17.312C0.800003 15.776 0.928003 14.208 1.184 12.608C1.504 10.944 2.08 9.24801 2.912 7.52001C3.744 5.79202 4.896 4.00002 6.368 2.14401ZM25.088 2.14401C25.92 1.05602 26.784 0.448018 27.68 0.320015C28.64 0.192017 29.44 0.384017 30.08 0.896014C30.784 1.34402 31.168 2.04802 31.232 3.00802C31.36 3.90402 30.976 4.89602 30.08 5.98402C28.8 7.58402 27.904 9.18402 27.392 10.784C26.944 12.384 26.72 13.824 26.72 15.104L26.336 11.936C28.576 11.936 30.368 12.576 31.712 13.856C33.12 15.136 33.824 16.864 33.824 19.04C33.824 21.088 33.184 22.784 31.904 24.128C30.624 25.408 28.896 26.048 26.72 26.048C24.48 26.048 22.72 25.28 21.44 23.744C20.16 22.208 19.52 20.064 19.52 17.312C19.52 15.776 19.648 14.208 19.904 12.608C20.224 10.944 20.8 9.24801 21.632 7.52001C22.464 5.79202 23.616 4.00002 25.088 2.14401Z" fill="#3F368C"/>
</svg>
