<svg width="34" height="27" viewBox="0 0 34 27" fill="none" xmlns="http://www.w3.org/2000/svg">
<path d="M27.7429 24.856C26.9109 25.944 26.0469 26.552 25.1509 26.68C24.1909 26.808 23.3909 26.616 22.7509 26.104C22.0469 25.656 21.6629 24.952 21.5989 23.992C21.4709 23.096 21.8549 22.104 22.7509 21.016C24.0309 19.416 24.9269 17.816 25.4389 16.216C25.8869 14.616 26.1109 13.176 26.1109 11.896L26.4949 15.064C24.2549 15.064 22.4629 14.424 21.1189 13.144C19.7109 11.864 19.0069 10.136 19.0069 7.96003C19.0069 5.91203 19.6469 4.21603 20.9269 2.87203C22.2069 1.59203 23.9349 0.952028 26.1109 0.952028C28.3509 0.952028 30.1109 1.72003 31.3909 3.25603C32.6709 4.79203 33.3109 6.93603 33.3109 9.68803C33.3109 11.224 33.1829 12.792 32.9269 14.392C32.6069 16.056 32.0309 17.752 31.1989 19.48C30.3669 21.208 29.2149 23 27.7429 24.856ZM9.02287 24.856C8.19086 25.944 7.32686 26.552 6.43086 26.68C5.47086 26.808 4.67086 26.616 4.03086 26.104C3.32686 25.656 2.94286 24.952 2.87886 23.992C2.75086 23.096 3.13486 22.104 4.03086 21.016C5.31087 19.416 6.20687 17.816 6.71886 16.216C7.16686 14.616 7.39086 13.176 7.39086 11.896L7.77487 15.064C5.53487 15.064 3.74287 14.424 2.39887 13.144C0.990865 11.864 0.286865 10.136 0.286865 7.96003C0.286865 5.91203 0.926866 4.21603 2.20687 2.87203C3.48687 1.59203 5.21487 0.952026 7.39087 0.952026C9.63087 0.952027 11.3909 1.72003 12.6709 3.25603C13.9509 4.79203 14.5909 6.93603 14.5909 9.68803C14.5909 11.224 14.4629 12.792 14.2069 14.392C13.8869 16.056 13.3109 17.752 12.4789 19.48C11.6469 21.208 10.4949 23 9.02287 24.856Z" fill="#3F368C"/>
</svg>
